Coordinates
version=1
nRows=16
nColumns=40
inDegrees=yes

Units are S.I. units (second, meters, Newtons, ...)
Angles are in degrees.

endheader
time	pelvis_tilt	pelvis_list	pelvis_rotation	pelvis_tx	pelvis_ty	pelvis_tz	hip_flexion_r	hip_adduction_r	hip_rotation_r	knee_angle_r	knee_angle_r_beta	ankle_angle_r	subtalar_angle_r	mtp_angle_r	hip_flexion_l	hip_adduction_l	hip_rotation_l	knee_angle_l	knee_angle_l_beta	ankle_angle_l	subtalar_angle_l	mtp_angle_l	lumbar_extension	lumbar_bending	lumbar_rotation	arm_flex_r	arm_add_r	arm_rot_r	elbow_flex_r	pro_sup_r	wrist_flex_r	wrist_dev_r	arm_flex_l	arm_add_l	arm_rot_l	elbow_flex_l	pro_sup_l	wrist_flex_l	wrist_dev_l
     55.18000000	     -7.73945260	     -4.64566204	     -0.87242807	      1.06068705	      0.92771722	      0.43966485	     32.63106471	     -7.06438971	     -6.49287246	     70.20354534	     70.20354534	     -7.25699788	    -17.10631902	      1.10775808	     18.07706963	     -5.41476444	     -5.17745316	     23.77831088	     23.77831088	     15.14902274	    -12.30037669	      4.41628242	    -10.82958923	      6.58186083	      3.21814081	     10.06323428	    -15.56559596	    -13.68655723	     43.22751195	     45.42488058	      0.00000000	      0.00000000	     -0.71849179	    -18.23711418	     -0.95961047	     75.04893158	     47.14122387	      0.00000000	      0.00000000
     55.19185714	     -7.62825320	     -4.73377567	     -1.23701060	      1.05948009	      0.92899574	      0.44028355	     34.09344795	     -6.82760729	     -6.65523779	     69.01397430	     69.01397430	     -6.58890418	    -17.27124736	      0.89305841	     16.82252512	     -5.52424336	     -5.39855589	     22.77391732	     22.77391732	     15.28972003	    -12.30878357	      4.70797894	    -11.20991200	      6.72561185	      3.69916169	      8.10736604	    -15.59992194	    -13.50251817	     41.43404057	     45.47753093	      0.00000000	      0.00000000	      0.93108023	    -18.56588663	     -1.59666745	     76.94926588	     47.23259701	      0.00000000	      0.00000000
     55.20371429	     -7.58652493	     -4.85583759	     -1.58151394	      1.05817815	      0.92989288	      0.44096345	     35.49917526	     -6.52914692	     -6.86311983	     67.60488864	     67.60488864	     -5.96972442	    -17.30903352	      0.71455918	     15.84021010	     -5.69868159	     -5.62315533	     22.11651901	     22.11651901	     15.47643696	    -12.28566687	      4.79705959	    -11.50337709	      6.84647547	      4.06778792	      6.36668832	    -15.56873915	    -13.21889099	     39.32540122	     45.53949220	      0.00000000	      0.00000000	      2.47173360	    -18.95823216	     -2.19379228	     79.18117867	     47.32804528	      0.00000000	      0.00000000
     55.21557143	     -7.55440710	     -4.97421506	     -1.86253713	      1.05685744	      0.93065135	      0.44171517	     36.73600994	     -6.19472033	     -7.08882553	     65.87396761	     65.87396761	     -5.43622531	    -17.30600864	      0.48507242	     14.89604126	     -5.87283054	     -5.85609550	     21.46519319	     21.46519319	     15.55302408	    -12.16664469	      4.56751951	    -11.76801462	      6.94681868	      3.26559770	      6.65458207	    -15.12341022	    -12.09016542	     34.07928945	     45.71667716	      0.00000000	      0.00000000	      2.71581620	    -20.00377454	     -3.37666418	     82.66610026	     47.51791843	      0.00000000	      0.00000000
     55.22742857	     -7.56096936	     -5.11755360	     -2.16001278	      1.05560813	      0.93130751	      0.44258850	     37.83586533	     -5.77411212	     -7.29745134	     63.79356987	     63.79356987	     -4.84676489	    -17.10996108	      0.62327177	     13.98943228	     -6.07894464	     -6.12320617	     20.81052196	     20.81052196	     15.64126428	    -12.04453558	      4.40691095	    -11.99756847	      7.11296502	      2.97646092	      5.73859397	    -14.88743596	    -11.30274858	     31.42792275	     45.80375479	      0.00000000	      0.00000000	      3.66850804	    -20.25007917	     -5.16059658	     84.99779073	     47.72909974	      0.00000000	      0.00000000
     55.23928571	     -7.57176752	     -5.26511311	     -2.43896667	      1.05441560	      0.93184030	      0.44363448	     38.75024338	     -5.28394449	     -7.46231400	     61.32655359	     61.32655359	     -4.29841403	    -16.77692598	      0.69878070	     13.08691585	     -6.28881770	     -6.36556437	     20.15153741	     20.15153741	     15.81394938	    -11.88787010	      4.44680221	    -12.23293120	      7.28762699	      3.19244854	      4.05040056	    -14.69687291	    -11.13984802	     30.31874746	     45.83196289	      0.00000000	      0.00000000	      5.21725911	    -20.59943708	     -5.82744819	     86.73198980	     47.81764467	      0.00000000	      0.00000000
     55.25114286	     -7.61334681	     -5.41105198	     -2.67221657	      1.05326223	      0.93217945	      0.44477481	     39.49020594	     -4.78079696	     -7.62206259	     58.44748631	     58.44748631	     -3.77731741	    -16.17712668	      0.68863689	     12.25854047	     -6.50202306	     -6.59471227	     19.55679415	     19.55679415	     15.99203262	    -11.68730604	      4.40454422	    -12.39693800	      7.47120799	      3.25813689	      2.48864143	    -14.45253928	    -11.02473557	     29.28571566	     45.86085525	      0.00000000	      0.00000000	      6.62754076	    -21.01752033	     -6.42539387	     88.58668511	     47.90219291	      0.00000000	      0.00000000
     55.26300000	     -7.66900998	     -5.52716710	     -2.89739409	      1.05221824	      0.93228379	      0.44610446	     40.03485556	     -4.27166950	     -7.74122724	     55.16590605	     55.16590605	     -3.24537315	    -15.32536463	      0.47373789	     11.44715369	     -6.70012595	     -6.87866273	     18.97320124	     18.97320124	     16.16932346	    -11.43736902	      4.26473417	    -12.55116695	      7.58119628	      3.27818447	      0.99902698	    -14.13451223	    -10.97389875	     28.32997244	     45.89341204	      0.00000000	      0.00000000	      7.93087858	    -21.45630637	     -7.03682758	     90.73714217	     47.99319542	      0.00000000	      0.00000000
     55.27485714	     -7.75034901	     -5.66404442	     -3.11799454	      1.05130450	      0.93214931	      0.44763120	     40.30863963	     -3.73004682	     -7.91352731	     51.33604016	     51.33604016	     -3.24592860	    -14.38729003	     -1.20459359	     10.69087543	     -6.94897529	     -7.26373587	     18.45814060	     18.45814060	     16.19732258	    -11.19556755	      3.60416804	    -12.64668017	      7.67338083	      2.67307739	      0.02240528	    -13.57525504	    -11.33781487	     27.44178673	     45.98661283	      0.00000000	      0.00000000	      8.36027998	    -22.25629162	     -8.16437033	     93.74842528	     48.14924244	      0.00000000	      0.00000000
     55.28671429	     -7.87681807	     -5.73419002	     -3.21172912	      1.05052614	      0.93179332	      0.44910433	     40.44214212	     -3.30645436	     -8.13007240	     47.24926444	     47.24926444	     -2.72107328	    -12.92021630	     -1.24802331	      9.94999503	     -7.07597210	     -7.39903298	     17.85049025	     17.85049025	     16.39851915	    -10.91862828	      3.50910174	    -12.63064553	      7.75769645	      2.56765418	     -1.51273104	    -13.30632446	    -11.42006920	     26.86010779	     46.01083275	      0.00000000	      0.00000000	      9.78535022	    -22.58393227	     -8.76307937	     95.26100514	     48.22615160	      0.00000000	      0.00000000
     55.29857143	     -7.94563760	     -5.82558957	     -3.28190413	      1.05001759	      0.93129852	      0.45058863	     40.21522739	     -2.87282383	     -8.41682674	     42.76647702	     42.76647702	     -2.26555526	    -11.07100509	     -1.25783084	      9.14484553	     -7.22666999	     -7.59336654	     17.28316798	     17.28316798	     16.64575452	    -10.61589752	      3.32086373	    -12.64836385	      7.87931863	      2.42210235	     -3.03600844	    -13.01173796	    -11.61852670	     26.51187897	     46.03349324	      0.00000000	      0.00000000	     11.03400115	    -22.92408324	     -9.23192296	     97.04243570	     48.29878199	      0.00000000	      0.00000000
     55.31042857	     -8.00227951	     -5.85798406	     -3.33260257	      1.04975679	      0.93050976	      0.45223350	     39.73731683	     -2.49025473	     -8.76889704	     38.05635396	     38.05635396	     -1.86189300	     -8.99215622	     -1.13439126	      8.32222755	     -7.32383342	     -7.81269517	     16.73730060	     16.73730060	     16.91988161	    -10.28633789	      3.04719362	    -12.63042573	      7.87594036	      2.21899860	     -4.54405757	    -12.68681749	    -11.94301560	     26.37974805	     46.05661274	      0.00000000	      0.00000000	     12.20032651	    -23.31081150	     -9.65342247	     98.91205149	     48.37026427	      0.00000000	      0.00000000
     55.32228571	     -8.10509366	     -5.85871740	     -3.32569052	      1.04966418	      0.92936533	      0.45391715	     39.09264232	     -2.11718555	     -9.14974516	     33.21856637	     33.21856637	     -1.57846222	     -6.91234027	     -0.61866839	      7.58060643	     -7.38638642	     -7.97284704	     16.24647837	     16.24647837	     17.19954613	     -9.99512963	      2.77749020	    -12.50553178	      7.87334465	      1.91272655	     -5.94431257	    -12.35752118	    -12.23667246	     26.28332005	     46.07455812	      0.00000000	      0.00000000	     13.35287640	    -23.77001641	    -10.02676483	    100.48548496	     48.43197680	      0.00000000	      0.00000000
     55.33414286	     -7.99025166	     -5.77929672	     -3.27874170	      1.05011809	      0.92810667	      0.45553358	     38.11359368	     -1.94141848	     -9.84545349	     28.66432598	     28.66432598	     -0.90599756	     -4.12505735	      0.97483525	      6.48944332	     -7.34692354	     -8.24741437	     15.59254707	     15.59254707	     17.25274001	     -9.59648680	      1.54110798	    -12.65455819	      7.75615864	      1.88048375	     -8.01976740	    -11.74313334	    -15.38605334	     28.05672338	     46.25491853	      0.00000000	      0.00000000	     14.39835250	    -23.92730535	    -10.29300523	    102.88932708	     48.53954310	      0.00000000	      0.00000000
     55.34600000	     -7.95436609	     -5.70578074	     -3.16455347	      1.05066572	      0.92647039	      0.45725081	     37.08054957	     -1.66352039	    -10.42210596	     24.24689898	     24.24689898	     -0.79438453	     -2.16666292	      2.09008840	      5.63585180	     -7.31700986	     -8.26822694	     15.23739748	     15.23739748	     17.68911152	     -9.39060615	      1.28836292	    -12.53572637	      7.65191069	      1.56393583	     -9.17750873	    -11.51392158	    -15.59267603	     27.70856351	     46.27696975	      0.00000000	      0.00000000	     15.53972589	    -24.25005896	    -10.39756617	    104.04506552	     48.57987230	      0.00000000	      0.00000000
     55.35785714	     -7.95091026	     -5.52657759	     -3.06725900	      1.05146134	      0.92445404	      0.45909185	     36.12981289	     -1.48229909	    -11.00784205	     20.44232012	     20.44232012	     -0.63630296	     -0.31619548	      3.30481770	      4.80837233	     -7.18865063	     -8.35805462	     14.90197698	     14.90197698	     18.15109741	     -9.15545927	      0.99241733	    -12.35001940	      7.39446537	      1.31313958	    -10.19001240	    -11.20589681	    -15.77787955	     27.51271545	     46.29108601	      0.00000000	      0.00000000	     16.73176304	    -24.56916565	    -10.50929402	    105.24994046	     48.62129561	      0.00000000	      0.00000000
